<svg width="52.405029" height="56.950195" viewBox="0 0 52.405 56.9502" fill="none" xmlns="http://www.w3.org/2000/svg" xmlns:xlink="http://www.w3.org/1999/xlink">
	<desc>
			Created with Pixso.
	</desc>
	<defs/>
	<path id="&amp;" d="M34.4317 46.896C32.4576 45.1974 30.5524 43.384 28.7161 41.4558C26.9256 39.4817 25.2499 37.4618 23.689 35.3959C22.1741 33.33 20.7738 31.2411 19.4884 29.1293C18.2488 26.9716 17.1929 24.8598 16.3207 22.7939C14.7598 24.4925 13.1989 26.2141 11.638 27.9586C10.123 29.6572 8.76867 31.3788 7.57504 33.1234C6.38141 34.822 5.41733 36.5436 4.68278 38.2881C3.90233 39.9867 3.51211 41.6854 3.51211 43.384C3.51211 45.404 3.85642 47.1485 4.54506 48.6176C5.18778 50.0408 6.06005 51.2115 7.16186 52.1296C8.26367 53.0478 9.52617 53.7135 10.9493 54.1267C12.3725 54.5398 13.8416 54.7464 15.3566 54.7464C18.3866 54.7464 21.6002 54.0348 24.9974 52.6117C28.3947 51.1885 31.5395 49.2833 34.4317 46.896ZM25.8927 6.0601C25.8927 4.45329 25.5254 3.30557 24.7909 2.61694C24.1022 1.8824 23.3447 1.51513 22.5184 1.51513C21.8297 1.51513 21.0952 1.74467 20.3147 2.20376C19.5802 2.66285 18.8916 3.32853 18.2488 4.20079C17.652 5.02715 17.147 6.03715 16.7339 7.23078C16.3207 8.42441 16.1141 9.73281 16.1141 11.156C16.1141 13.7728 16.5961 16.5503 17.5602 19.4884C18.7079 18.2948 19.7868 17.1241 20.7968 15.9764C21.8068 14.8287 22.6791 13.7039 23.4136 12.6021C24.194 11.4544 24.7909 10.3526 25.204 9.29668C25.6631 8.19487 25.8927 7.11601 25.8927 6.0601ZM52.405 56.3303C52.405 56.468 52.3132 56.6057 52.1296 56.7435C51.9459 56.8812 51.6705 56.9501 51.3032 56.9501C48.5487 56.0778 45.8401 54.8612 43.1773 53.3003C40.5146 51.6935 37.9208 49.8342 35.3958 47.7224C33.6513 49.0537 31.8379 50.2703 29.9556 51.3721C28.0733 52.4739 26.1452 53.4151 24.1711 54.1955C22.2429 54.976 20.2918 55.5728 18.3177 55.986C16.3895 56.3992 14.5302 56.6057 12.7398 56.6057C10.9952 56.6057 9.34253 56.3532 7.78163 55.8482C6.22073 55.3892 4.86642 54.6776 3.7187 53.7135C2.57098 52.7035 1.67575 51.464 1.03303 49.9949C0.344397 48.5258 8.05855e-05 46.8042 8.05855e-05 44.8301C8.05855e-05 42.7183 0.482123 40.6524 1.44621 38.6324C2.4103 36.5665 3.64983 34.5465 5.16483 32.5725C6.67982 30.5984 8.35549 28.6702 10.1918 26.7879C12.0741 24.9057 13.9105 23.0693 15.7009 21.2789C14.3695 17.698 13.7039 14.4614 13.7039 11.5692C13.7039 9.87054 14.0023 8.30963 14.5991 6.88646C15.2418 5.46328 16.0452 4.2467 17.0093 3.23671C17.9734 2.22671 19.0293 1.44626 20.177 0.895359C21.3706 0.298542 22.4954 0.000133514 23.5513 0.000133514C24.7909 0.000133514 25.9156 0.413315 26.9256 1.23967C27.9356 2.02012 28.4406 3.32852 28.4406 5.16488C28.4406 6.3126 28.1422 7.50623 27.5454 8.74577C26.9945 9.98531 26.237 11.2708 25.2729 12.6021C24.3547 13.8876 23.2529 15.2419 21.9675 16.665C20.7279 18.0423 19.4195 19.4655 18.0423 20.9346C19.5572 25.1123 21.8068 29.3588 24.7909 33.6743C27.8208 37.9438 31.4935 41.9379 35.809 45.6565C38.1503 43.5447 40.0326 41.2263 41.4558 38.7013C42.8789 36.1763 43.5905 33.5365 43.5905 30.782C43.5905 29.8638 43.4528 28.9457 43.1773 28.0275C42.9478 27.0634 42.4658 26.0534 41.7312 24.9975C41.7312 24.9057 41.8689 24.8139 42.1444 24.722C42.4199 24.5843 42.6724 24.5155 42.9019 24.5155C43.5446 24.5155 44.0496 24.745 44.4169 25.2041C44.8301 25.6173 45.1285 26.1223 45.3121 26.7191C45.5417 27.3159 45.6794 27.9357 45.7253 28.5784C45.8171 29.1752 45.863 29.6572 45.863 30.0245C45.863 33.0545 45.0137 35.9927 43.3151 38.839C41.6624 41.6395 39.5046 44.2104 36.8419 46.5517C41.2951 50.3621 46.3221 53.461 51.923 55.8482C52.2443 56.0319 52.405 56.1926 52.405 56.3303Z" fill="#FFA55C" fill-opacity="1.000000" fill-rule="evenodd"/>
</svg>
